<mxfile host="app.diagrams.net" modified="2023-12-25T13:54:31.167Z" agent="Mozilla/5.0 (X11; Linux x86_64; rv:121.0) Gecko/20100101 Firefox/121.0" etag="WRC4xqLVCJUzysD3ENXE" version="22.1.11" type="github">
  <diagram name="Page-1" id="uoUocLC2qeFmE-KDkr6s">
    <mxGraphModel dx="1167" dy="615" grid="0" gridSize="10" guides="1" tooltips="1" connect="1" arrows="1" fold="1" page="1" pageScale="1" pageWidth="850" pageHeight="1100" math="0" shadow="0">
      <root>
        <mxCell id="0" />
        <mxCell id="1" parent="0" />
        <mxCell id="cOCMEFSa-XjFwauJWfGx-24" value="" style="endArrow=none;dashed=1;html=1;dashPattern=1 3;strokeWidth=2;rounded=0;" edge="1" parent="1" source="cOCMEFSa-XjFwauJWfGx-28">
          <mxGeometry width="50" height="50" relative="1" as="geometry">
            <mxPoint x="229" y="360" as="sourcePoint" />
            <mxPoint x="94" y="747" as="targetPoint" />
          </mxGeometry>
        </mxCell>
        <mxCell id="cOCMEFSa-XjFwauJWfGx-25" value="" style="endArrow=none;dashed=1;html=1;dashPattern=1 3;strokeWidth=2;rounded=0;entryX=0.5;entryY=1;entryDx=0;entryDy=0;" edge="1" parent="1" target="cOCMEFSa-XjFwauJWfGx-29">
          <mxGeometry width="50" height="50" relative="1" as="geometry">
            <mxPoint x="229" y="757" as="sourcePoint" />
            <mxPoint x="279" y="310" as="targetPoint" />
          </mxGeometry>
        </mxCell>
        <mxCell id="cOCMEFSa-XjFwauJWfGx-26" value="" style="endArrow=none;dashed=1;html=1;dashPattern=1 3;strokeWidth=2;rounded=0;entryX=0.5;entryY=1;entryDx=0;entryDy=0;" edge="1" parent="1" target="cOCMEFSa-XjFwauJWfGx-32">
          <mxGeometry width="50" height="50" relative="1" as="geometry">
            <mxPoint x="428" y="760" as="sourcePoint" />
            <mxPoint x="279" y="310" as="targetPoint" />
          </mxGeometry>
        </mxCell>
        <mxCell id="cOCMEFSa-XjFwauJWfGx-27" value="" style="endArrow=none;dashed=1;html=1;dashPattern=1 3;strokeWidth=2;rounded=0;entryX=0.5;entryY=1;entryDx=0;entryDy=0;" edge="1" parent="1" source="cOCMEFSa-XjFwauJWfGx-49" target="cOCMEFSa-XjFwauJWfGx-34">
          <mxGeometry width="50" height="50" relative="1" as="geometry">
            <mxPoint x="628" y="768" as="sourcePoint" />
            <mxPoint x="279" y="310" as="targetPoint" />
          </mxGeometry>
        </mxCell>
        <mxCell id="cOCMEFSa-XjFwauJWfGx-28" value="&lt;div&gt;Администратор&lt;/div&gt;" style="shape=umlActor;verticalLabelPosition=bottom;verticalAlign=top;html=1;outlineConnect=0;align=center;horizontal=1;labelPosition=center;" vertex="1" parent="1">
          <mxGeometry x="79" y="80" width="30" height="60" as="geometry" />
        </mxCell>
        <mxCell id="cOCMEFSa-XjFwauJWfGx-29" value="Интерфейс" style="rounded=0;whiteSpace=wrap;html=1;" vertex="1" parent="1">
          <mxGeometry x="169" y="80" width="120" height="60" as="geometry" />
        </mxCell>
        <mxCell id="cOCMEFSa-XjFwauJWfGx-30" value="" style="html=1;points=[[0,0,0,0,5],[0,1,0,0,-5],[1,0,0,0,5],[1,1,0,0,-5]];perimeter=orthogonalPerimeter;outlineConnect=0;targetShapes=umlLifeline;portConstraint=eastwest;newEdgeStyle={&quot;curved&quot;:0,&quot;rounded&quot;:0};" vertex="1" parent="1">
          <mxGeometry x="89" y="210" width="10" height="300" as="geometry" />
        </mxCell>
        <mxCell id="cOCMEFSa-XjFwauJWfGx-31" value="" style="html=1;points=[[0,0,0,0,5],[0,1,0,0,-5],[1,0,0,0,5],[1,1,0,0,-5]];perimeter=orthogonalPerimeter;outlineConnect=0;targetShapes=umlLifeline;portConstraint=eastwest;newEdgeStyle={&quot;curved&quot;:0,&quot;rounded&quot;:0};" vertex="1" parent="1">
          <mxGeometry x="224" y="250" width="10" height="250" as="geometry" />
        </mxCell>
        <mxCell id="cOCMEFSa-XjFwauJWfGx-32" value="Backend API" style="rounded=0;whiteSpace=wrap;html=1;" vertex="1" parent="1">
          <mxGeometry x="369" y="80" width="120" height="60" as="geometry" />
        </mxCell>
        <mxCell id="cOCMEFSa-XjFwauJWfGx-33" value="" style="html=1;points=[[0,0,0,0,5],[0,1,0,0,-5],[1,0,0,0,5],[1,1,0,0,-5]];perimeter=orthogonalPerimeter;outlineConnect=0;targetShapes=umlLifeline;portConstraint=eastwest;newEdgeStyle={&quot;curved&quot;:0,&quot;rounded&quot;:0};" vertex="1" parent="1">
          <mxGeometry x="424" y="260" width="10" height="120" as="geometry" />
        </mxCell>
        <mxCell id="cOCMEFSa-XjFwauJWfGx-34" value="База данных" style="rounded=0;whiteSpace=wrap;html=1;" vertex="1" parent="1">
          <mxGeometry x="569" y="80" width="120" height="60" as="geometry" />
        </mxCell>
        <mxCell id="cOCMEFSa-XjFwauJWfGx-35" value="" style="endArrow=classic;html=1;rounded=0;" edge="1" parent="1" source="cOCMEFSa-XjFwauJWfGx-30" target="cOCMEFSa-XjFwauJWfGx-31">
          <mxGeometry width="50" height="50" relative="1" as="geometry">
            <mxPoint x="140" y="270" as="sourcePoint" />
            <mxPoint x="190" y="220" as="targetPoint" />
            <Array as="points">
              <mxPoint x="190" y="260" />
            </Array>
          </mxGeometry>
        </mxCell>
        <mxCell id="cOCMEFSa-XjFwauJWfGx-36" value="&lt;div&gt;Переход к форме&lt;/div&gt;&lt;div&gt;исходных&lt;/div&gt;&lt;div&gt;данных&lt;br&gt;&lt;/div&gt;" style="edgeLabel;html=1;align=center;verticalAlign=middle;resizable=0;points=[];" vertex="1" connectable="0" parent="cOCMEFSa-XjFwauJWfGx-35">
          <mxGeometry x="0.1973" y="-2" relative="1" as="geometry">
            <mxPoint x="-14" y="-32" as="offset" />
          </mxGeometry>
        </mxCell>
        <mxCell id="cOCMEFSa-XjFwauJWfGx-37" value="" style="endArrow=classic;html=1;rounded=0;" edge="1" parent="1">
          <mxGeometry width="50" height="50" relative="1" as="geometry">
            <mxPoint x="234" y="270" as="sourcePoint" />
            <mxPoint x="420" y="270" as="targetPoint" />
          </mxGeometry>
        </mxCell>
        <mxCell id="cOCMEFSa-XjFwauJWfGx-38" value="&lt;div&gt;Отправка http запроса&lt;/div&gt;&lt;div&gt;на получение списка&lt;/div&gt;&lt;div&gt;питательных сред&lt;br&gt;&lt;/div&gt;" style="edgeLabel;html=1;align=center;verticalAlign=middle;resizable=0;points=[];" vertex="1" connectable="0" parent="cOCMEFSa-XjFwauJWfGx-37">
          <mxGeometry x="0.19" y="1" relative="1" as="geometry">
            <mxPoint x="-15" y="-29" as="offset" />
          </mxGeometry>
        </mxCell>
        <mxCell id="cOCMEFSa-XjFwauJWfGx-39" value="" style="endArrow=classic;html=1;rounded=0;" edge="1" parent="1">
          <mxGeometry width="50" height="50" relative="1" as="geometry">
            <mxPoint x="434" y="290" as="sourcePoint" />
            <mxPoint x="624" y="290" as="targetPoint" />
          </mxGeometry>
        </mxCell>
        <mxCell id="cOCMEFSa-XjFwauJWfGx-40" value="&lt;div&gt;Запрос на&amp;nbsp;&lt;/div&gt;&lt;div&gt;получение&amp;nbsp;&lt;/div&gt;&lt;div&gt;списка&amp;nbsp;&lt;/div&gt;&lt;div&gt;питательных сред&lt;/div&gt;&lt;div&gt;из БД&lt;br&gt;&lt;/div&gt;" style="edgeLabel;html=1;align=center;verticalAlign=middle;resizable=0;points=[];" vertex="1" connectable="0" parent="cOCMEFSa-XjFwauJWfGx-39">
          <mxGeometry x="-0.1067" y="-2" relative="1" as="geometry">
            <mxPoint x="10" y="-42" as="offset" />
          </mxGeometry>
        </mxCell>
        <mxCell id="cOCMEFSa-XjFwauJWfGx-41" value="&lt;div&gt;Возвращение списка питательных&lt;/div&gt;&lt;div&gt;сред&lt;br&gt;&lt;/div&gt;" style="html=1;verticalAlign=bottom;endArrow=open;dashed=1;endSize=8;curved=0;rounded=0;" edge="1" parent="1" target="cOCMEFSa-XjFwauJWfGx-33">
          <mxGeometry relative="1" as="geometry">
            <mxPoint x="630" y="330" as="sourcePoint" />
            <mxPoint x="550" y="330" as="targetPoint" />
          </mxGeometry>
        </mxCell>
        <mxCell id="cOCMEFSa-XjFwauJWfGx-42" value="&lt;div&gt;Возвращение списка питательных&lt;/div&gt;&lt;div&gt;сред на клиент&lt;br&gt;&lt;/div&gt;" style="html=1;verticalAlign=bottom;endArrow=open;dashed=1;endSize=8;curved=0;rounded=0;" edge="1" parent="1" target="cOCMEFSa-XjFwauJWfGx-31">
          <mxGeometry relative="1" as="geometry">
            <mxPoint x="420" y="360" as="sourcePoint" />
            <mxPoint x="340" y="360" as="targetPoint" />
          </mxGeometry>
        </mxCell>
        <mxCell id="cOCMEFSa-XjFwauJWfGx-43" value="&lt;div&gt;Уведомление&lt;/div&gt;&lt;div&gt;пользователя о&lt;/div&gt;&lt;div&gt;статусе загрузки&lt;/div&gt;&lt;div&gt;питательных&lt;/div&gt;&lt;div&gt;сред&lt;br&gt;&lt;/div&gt;" style="html=1;verticalAlign=bottom;endArrow=open;dashed=1;endSize=8;curved=0;rounded=0;" edge="1" parent="1" target="cOCMEFSa-XjFwauJWfGx-30">
          <mxGeometry relative="1" as="geometry">
            <mxPoint x="220" y="390" as="sourcePoint" />
            <mxPoint x="140" y="390" as="targetPoint" />
          </mxGeometry>
        </mxCell>
        <mxCell id="cOCMEFSa-XjFwauJWfGx-44" value="" style="endArrow=classic;html=1;rounded=0;" edge="1" parent="1">
          <mxGeometry width="50" height="50" relative="1" as="geometry">
            <mxPoint x="99" y="440" as="sourcePoint" />
            <mxPoint x="224" y="440" as="targetPoint" />
          </mxGeometry>
        </mxCell>
        <mxCell id="cOCMEFSa-XjFwauJWfGx-45" value="&lt;div&gt;Выбор питательной&lt;/div&gt;&lt;div&gt;&amp;nbsp;среды&lt;/div&gt;&lt;div&gt;из списка&lt;br&gt;&lt;/div&gt;" style="edgeLabel;html=1;align=center;verticalAlign=middle;resizable=0;points=[];" vertex="1" connectable="0" parent="cOCMEFSa-XjFwauJWfGx-44">
          <mxGeometry x="0.224" y="1" relative="1" as="geometry">
            <mxPoint x="-16" y="-24" as="offset" />
          </mxGeometry>
        </mxCell>
        <mxCell id="cOCMEFSa-XjFwauJWfGx-46" value="" style="endArrow=classic;html=1;rounded=0;exitX=1.1;exitY=0.718;exitDx=0;exitDy=0;exitPerimeter=0;" edge="1" parent="1">
          <mxGeometry width="50" height="50" relative="1" as="geometry">
            <mxPoint x="99.00000000000023" y="490" as="sourcePoint" />
            <mxPoint x="223" y="490" as="targetPoint" />
          </mxGeometry>
        </mxCell>
        <mxCell id="cOCMEFSa-XjFwauJWfGx-47" value="&lt;div&gt;Ввод объема питательной&lt;/div&gt;&lt;div&gt;среды&lt;br&gt;&lt;/div&gt;" style="edgeLabel;html=1;align=center;verticalAlign=middle;resizable=0;points=[];" vertex="1" connectable="0" parent="cOCMEFSa-XjFwauJWfGx-46">
          <mxGeometry x="-0.2258" y="3" relative="1" as="geometry">
            <mxPoint x="12" y="-17" as="offset" />
          </mxGeometry>
        </mxCell>
        <mxCell id="cOCMEFSa-XjFwauJWfGx-48" value="" style="endArrow=none;dashed=1;html=1;dashPattern=1 3;strokeWidth=2;rounded=0;entryX=0.5;entryY=1;entryDx=0;entryDy=0;" edge="1" parent="1" target="cOCMEFSa-XjFwauJWfGx-49">
          <mxGeometry width="50" height="50" relative="1" as="geometry">
            <mxPoint x="628" y="768" as="sourcePoint" />
            <mxPoint x="629" y="140" as="targetPoint" />
          </mxGeometry>
        </mxCell>
        <mxCell id="cOCMEFSa-XjFwauJWfGx-49" value="" style="html=1;points=[[0,0,0,0,5],[0,1,0,0,-5],[1,0,0,0,5],[1,1,0,0,-5]];perimeter=orthogonalPerimeter;outlineConnect=0;targetShapes=umlLifeline;portConstraint=eastwest;newEdgeStyle={&quot;curved&quot;:0,&quot;rounded&quot;:0};" vertex="1" parent="1">
          <mxGeometry x="624" y="250" width="10" height="118" as="geometry" />
        </mxCell>
      </root>
    </mxGraphModel>
  </diagram>
</mxfile>
